<svg width="328" height="40" viewBox="0 0 328 40" fill="none" xmlns="http://www.w3.org/2000/svg">
<path d="M0 39.6429V0.357143H7.85714V32.9464H15.9375V39.6429H0Z" fill="white"/>
<path d="M18.1696 39.6429V0.357143H33.8839V7.94643H26.1607V15.6027H33.5714V22.9911H26.1607V31.9866H34.3973V39.6429H18.1696Z" fill="white"/>
<path d="M46.3393 40C42.753 40 40.1637 39.1071 38.5714 37.3214C36.994 35.5357 36.2054 32.6935 36.2054 28.7946V24.9554H43.9732V29.8661C43.9732 30.7738 44.1071 31.4881 44.375 32.0089C44.6577 32.5149 45.1414 32.7679 45.8259 32.7679C46.5402 32.7679 47.0312 32.5595 47.2991 32.1429C47.5818 31.7262 47.7232 31.0417 47.7232 30.0893C47.7232 28.8839 47.6042 27.8795 47.3661 27.0759C47.128 26.2574 46.7113 25.4836 46.1161 24.7545C45.5357 24.0104 44.7247 23.1473 43.683 22.1652L40.1562 18.817C37.5223 16.3318 36.2054 13.4896 36.2054 10.2902C36.2054 6.94196 36.9792 4.38988 38.5268 2.63393C40.0893 0.877976 42.3437 0 45.2902 0C48.8914 0 51.4435 0.959821 52.9464 2.87946C54.4643 4.79911 55.2232 7.71577 55.2232 11.6295H47.2321V8.92857C47.2321 8.39286 47.0759 7.97619 46.7634 7.67857C46.4658 7.38095 46.0565 7.23214 45.5357 7.23214C44.9107 7.23214 44.4494 7.41071 44.1518 7.76786C43.869 8.11012 43.7277 8.55655 43.7277 9.10714C43.7277 9.65774 43.8765 10.253 44.1741 10.8929C44.4717 11.5327 45.0595 12.2693 45.9375 13.1027L50.4687 17.4554C51.3765 18.3185 52.2098 19.2336 52.9687 20.2009C53.7277 21.1533 54.3378 22.2693 54.7991 23.5491C55.2604 24.814 55.4911 26.3616 55.4911 28.192C55.4911 31.8824 54.8065 34.7768 53.4375 36.875C52.0833 38.9583 49.7173 40 46.3393 40Z" fill="white"/>
<path d="M68.8393 39.6429V0.357143H79.2187C81.3914 0.357143 83.1101 0.840774 84.375 1.80804C85.6548 2.7753 86.5699 4.15179 87.1205 5.9375C87.6711 7.72321 87.9464 9.85119 87.9464 12.3214C87.9464 14.7024 87.7158 16.7783 87.2545 18.5491C86.7932 20.3051 85.9673 21.6667 84.7768 22.6339C83.6012 23.6012 81.9271 24.0848 79.7545 24.0848H76.5625V39.6429H68.8393ZM76.5625 17.0312H77.0089C78.4673 17.0312 79.3601 16.622 79.6875 15.8036C80.0149 14.9851 80.1786 13.7798 80.1786 12.1875C80.1786 10.6994 80.0149 9.55357 79.6875 8.75C79.375 7.93155 78.6235 7.52232 77.433 7.52232H76.5625V17.0312Z" fill="white"/>
<path d="M90.4464 39.6429V0.357143H106.161V7.94643H98.4375V15.6027H105.848V22.9911H98.4375V31.9866H106.674V39.6429H90.4464Z" fill="white"/>
<path d="M112.656 39.6429V7.90179H107.991V0.357143H125.179V7.90179H120.513V39.6429H112.656Z" fill="white"/>
<path d="M127.009 39.6429V0.357143H134.598V39.6429H127.009Z" fill="white"/>
<path d="M141.094 39.6429V7.90179H136.429V0.357143H153.616V7.90179H148.951V39.6429H141.094Z" fill="white"/>
<path d="M165.134 40C161.548 40 158.958 39.1071 157.366 37.3214C155.789 35.5357 155 32.6935 155 28.7946V24.9554H162.768V29.8661C162.768 30.7738 162.902 31.4881 163.17 32.0089C163.452 32.5149 163.936 32.7679 164.621 32.7679C165.335 32.7679 165.826 32.5595 166.094 32.1429C166.376 31.7262 166.518 31.0417 166.518 30.0893C166.518 28.8839 166.399 27.8795 166.161 27.0759C165.923 26.2574 165.506 25.4836 164.911 24.7545C164.33 24.0104 163.519 23.1473 162.478 22.1652L158.951 18.817C156.317 16.3318 155 13.4896 155 10.2902C155 6.94196 155.774 4.38988 157.321 2.63393C158.884 0.877976 161.138 0 164.085 0C167.686 0 170.238 0.959821 171.741 2.87946C173.259 4.79911 174.018 7.71577 174.018 11.6295H166.027V8.92857C166.027 8.39286 165.871 7.97619 165.558 7.67857C165.26 7.38095 164.851 7.23214 164.33 7.23214C163.705 7.23214 163.244 7.41071 162.946 7.76786C162.664 8.11012 162.522 8.55655 162.522 9.10714C162.522 9.65774 162.671 10.253 162.969 10.8929C163.266 11.5327 163.854 12.2693 164.732 13.1027L169.263 17.4554C170.171 18.3185 171.004 19.2336 171.763 20.2009C172.522 21.1533 173.132 22.2693 173.594 23.5491C174.055 24.814 174.286 26.3616 174.286 28.192C174.286 31.8824 173.601 34.7768 172.232 36.875C170.878 38.9583 168.512 40 165.134 40Z" fill="white"/>
<path d="M187.634 39.6429V0.357143H198.013C200.186 0.357143 201.905 0.840774 203.17 1.80804C204.449 2.7753 205.365 4.15179 205.915 5.9375C206.466 7.72321 206.741 9.85119 206.741 12.3214C206.741 14.7024 206.51 16.7783 206.049 18.5491C205.588 20.3051 204.762 21.6667 203.571 22.6339C202.396 23.6012 200.722 24.0848 198.549 24.0848H195.357V39.6429H187.634ZM195.357 17.0312H195.804C197.262 17.0312 198.155 16.622 198.482 15.8036C198.81 14.9851 198.973 13.7798 198.973 12.1875C198.973 10.6994 198.81 9.55357 198.482 8.75C198.17 7.93155 197.418 7.52232 196.228 7.52232H195.357V17.0312Z" fill="white"/>
<path d="M209.241 39.6429V0.357143H217.098V32.9464H225.179V39.6429H209.241Z" fill="white"/>
<path d="M226.339 39.6429L230.134 0.357143H243.46L247.187 39.6429H239.754L239.196 33.3036H234.464L233.973 39.6429H226.339ZM235.022 27.0312H238.594L236.875 7.05357H236.518L235.022 27.0312Z" fill="white"/>
<path d="M252.388 39.6429V7.90179H247.723V0.357143H264.911V7.90179H260.246V39.6429H252.388Z" fill="white"/>
<path d="M276.429 40C272.842 40 270.253 39.1071 268.661 37.3214C267.083 35.5357 266.295 32.6935 266.295 28.7946V24.9554H274.062V29.8661C274.062 30.7738 274.196 31.4881 274.464 32.0089C274.747 32.5149 275.231 32.7679 275.915 32.7679C276.629 32.7679 277.121 32.5595 277.388 32.1429C277.671 31.7262 277.812 31.0417 277.812 30.0893C277.812 28.8839 277.693 27.8795 277.455 27.0759C277.217 26.2574 276.801 25.4836 276.205 24.7545C275.625 24.0104 274.814 23.1473 273.772 22.1652L270.246 18.817C267.612 16.3318 266.295 13.4896 266.295 10.2902C266.295 6.94196 267.068 4.38988 268.616 2.63393C270.179 0.877976 272.433 0 275.379 0C278.981 0 281.533 0.959821 283.036 2.87946C284.554 4.79911 285.312 7.71577 285.312 11.6295H277.321V8.92857C277.321 8.39286 277.165 7.97619 276.853 7.67857C276.555 7.38095 276.146 7.23214 275.625 7.23214C275 7.23214 274.539 7.41071 274.241 7.76786C273.958 8.11012 273.817 8.55655 273.817 9.10714C273.817 9.65774 273.966 10.253 274.263 10.8929C274.561 11.5327 275.149 12.2693 276.027 13.1027L280.558 17.4554C281.466 18.3185 282.299 19.2336 283.058 20.2009C283.817 21.1533 284.427 22.2693 284.888 23.5491C285.35 24.814 285.58 26.3616 285.58 28.192C285.58 31.8824 284.896 34.7768 283.527 36.875C282.173 38.9583 279.807 40 276.429 40Z" fill="white"/>
<path d="M327.783 22.8175C327.783 32.1099 319.966 39.6429 310.323 39.6429C300.68 39.6429 292.862 32.1099 292.862 22.8175C292.862 13.5251 300.68 5.99206 310.323 5.99206C319.966 5.99206 327.783 13.5251 327.783 22.8175Z" fill="white"/>
<path fill-rule="evenodd" clip-rule="evenodd" d="M310.323 37.1032C318.653 37.1032 325.243 30.6194 325.243 22.8175C325.243 15.0155 318.653 8.53175 310.323 8.53175C301.993 8.53175 295.402 15.0155 295.402 22.8175C295.402 30.6194 301.993 37.1032 310.323 37.1032ZM310.323 39.6429C319.966 39.6429 327.783 32.1099 327.783 22.8175C327.783 13.5251 319.966 5.99206 310.323 5.99206C300.68 5.99206 292.862 13.5251 292.862 22.8175C292.862 32.1099 300.68 39.6429 310.323 39.6429Z" fill="black"/>
<path d="M322.069 22.8175C322.069 29.3046 316.81 34.5635 310.323 34.5635C303.836 34.5635 298.577 29.3046 298.577 22.8175C298.577 16.3303 303.836 11.0714 310.323 11.0714C316.81 11.0714 322.069 16.3303 322.069 22.8175Z" fill="white"/>
<path fill-rule="evenodd" clip-rule="evenodd" d="M310.323 32.0238C315.407 32.0238 319.529 27.902 319.529 22.8175C319.529 17.7329 315.407 13.6111 310.323 13.6111C305.238 13.6111 301.116 17.7329 301.116 22.8175C301.116 27.902 305.238 32.0238 310.323 32.0238ZM310.323 34.5635C316.81 34.5635 322.069 29.3046 322.069 22.8175C322.069 16.3303 316.81 11.0714 310.323 11.0714C303.836 11.0714 298.577 16.3303 298.577 22.8175C298.577 29.3046 303.836 34.5635 310.323 34.5635Z" fill="black"/>
</svg>
